<?xml version="1.0" standalone="no"?>
<svg xmlns:xlink="http://www.w3.org/1999/xlink" 
id="wave" style="transform:rotate(0deg); transition: 0.3s" 
viewBox="0 0 1440 300" version="1.1" 
xmlns="http://www.w3.org/2000/svg"><defs><linearGradient id="sw-gradient-0" x1="0" x2="0" y1="1" y2="0"><stop stop-color="rgba(76.108, 186.293, 52.824, 1)" 
offset="0%"/><stop stop-color="rgba(188.567, 236.383, 155.118, 1)" offset="100%"/></linearGradient></defs><path 
style="transform:translate(0, 0px); opacity:1" fill="url(#sw-gradient-0)" 
d="M0,150L30,165C60,180,120,210,180,225C240,240,300,240,360,210C420,180,480,120,540,90C600,60,660,60,720,75C780,90,840,120,900,135C960,150,1020,150,1080,125C1140,100,1200,50,1260,35C1320,20,1380,40,1440,40C1500,40,1560,20,1620,25C1680,30,1740,60,1800,105C1860,150,1920,210,1980,230C2040,250,2100,230,2160,230C2220,230,2280,250,2340,250C2400,250,2460,230,2520,195C2580,160,2640,110,2700,80C2760,50,2820,40,2880,35C2940,30,3000,30,3060,40C3120,50,3180,70,3240,75C3300,80,3360,70,3420,70C3480,70,3540,80,3600,110C3660,140,3720,190,3780,195C3840,200,3900,160,3960,125C4020,90,4080,60,4140,45C4200,30,4260,30,4290,30L4320,30L4320,300L4290,300C4260,300,4200,300,4140,300C4080,300,4020,300,3960,300C3900,300,3840,300,3780,300C3720,300,3660,300,3600,300C3540,300,3480,300,3420,300C3360,300,3300,300,3240,300C3180,300,3120,300,3060,300C3000,300,2940,300,2880,300C2820,300,2760,300,2700,300C2640,300,2580,300,2520,300C2460,300,2400,300,2340,300C2280,300,2220,300,2160,300C2100,300,2040,300,1980,300C1920,300,1860,300,1800,300C1740,300,1680,300,1620,300C1560,300,1500,300,1440,300C1380,300,1320,300,1260,300C1200,300,1140,300,1080,300C1020,300,960,300,900,300C840,300,780,300,720,300C660,300,600,300,540,300C480,300,420,300,360,300C300,300,240,300,180,300C120,300,60,300,30,300L0,300Z"/>
</svg>